<svg viewBox="0 0 900 500" xmlns="http://www.w3.org/2000/svg">
  <defs>
    <style>
      .bg { fill: #2E3440; }
      .box { fill: #3B4252; stroke: #4C566A; stroke-width: 2; }
      .esp32 { fill: #434C5E; stroke: #88C0D0; stroke-width: 3; }
      .text { fill: #D8DEE9; font-family: -apple-system, sans-serif; font-size: 11px; }
      .title { fill: #ECEFF4; font-size: 13px; font-weight: bold; }
      .accent { fill: #88C0D0; }
      .line { stroke: #88C0D0; stroke-width: 2; fill: none; }
      .sensor-p { fill: #81A1C1; }
      .sensor-s { fill: #A3BE8C; }
      .wireless { fill: #5E81AC; }
    </style>
  </defs>
  
  <rect class="bg" width="900" height="500"/>
  
  <text x="450" y="30" text-anchor="middle" class="title" font-size="18" fill="#ECEFF4">SMART SOCKS SYSTEM v2 - DUAL ESP32</text>
  
  <!-- Left Leg System -->
  <g transform="translate(50, 70)">
    <rect class="box" x="0" y="0" width="350" height="380" rx="8"/>
    <text x="175" y="25" text-anchor="middle" class="title" font-size="15">LEFT LEG SYSTEM</text>
    
    <!-- Left Sock -->
    <g transform="translate(20, 50)">
      <rect class="box" x="0" y="0" width="140" height="140" rx="6"/>
      <text x="70" y="20" text-anchor="middle" class="title">LEFT SOCK</text>
      <circle class="sensor-p" cx="70" cy="55" r="12"/>
      <text x="70" y="60" text-anchor="middle" class="text" fill="#2E3440" font-size="9">P</text>
      <text x="90" y="58" class="text">Heel</text>
      <circle class="sensor-p" cx="70" cy="95" r="12"/>
      <text x="70" y="100" text-anchor="middle" class="text" fill="#2E3440" font-size="9">P</text>
      <text x="90" y="98" class="text">Ball</text>
    </g>
    
    <!-- Left Knee -->
    <g transform="translate(190, 50)">
      <rect class="box" x="0" y="0" width="140" height="140" rx="6"/>
      <text x="70" y="20" text-anchor="middle" class="title">LEFT KNEE</text>
      <circle class="sensor-s" cx="70" cy="75" r="12"/>
      <text x="70" y="80" text-anchor="middle" class="text" fill="#2E3440" font-size="9">S</text>
      <text x="90" y="78" class="text">Stretch</text>
    </g>
    
    <!-- Left ESP32 -->
    <g transform="translate(75, 210)">
      <rect class="esp32" x="0" y="0" width="200" height="100" rx="6"/>
      <text x="100" y="25" text-anchor="middle" class="title">ESP32S3-XIAO</text>
      <text x="100" y="45" text-anchor="middle" class="text">Left Leg Controller</text>
      <text x="100" y="65" text-anchor="middle" class="accent">A0:Heel  A1:Ball  A2:Knee</text>
      <text x="100" y="80" text-anchor="middle" class="text" font-size="9">(A3-A5 unused)</text>
      <text x="100" y="85" text-anchor="middle" class="text">Port: /dev/cu.usbmodem2101</text>
    </g>
    
    <!-- Output -->
    <g transform="translate(100, 330)">
      <rect class="wireless" x="0" y="0" width="150" height="35" rx="6" opacity="0.3"/>
      <text x="75" y="22" text-anchor="middle" class="text">WiFi: 192.168.4.1</text>
    </g>
  </g>
  
  <!-- Right Leg System -->
  <g transform="translate(500, 70)">
    <rect class="box" x="0" y="0" width="350" height="380" rx="8"/>
    <text x="175" y="25" text-anchor="middle" class="title" font-size="15">RIGHT LEG SYSTEM</text>
    
    <!-- Right Sock -->
    <g transform="translate(20, 50)">
      <rect class="box" x="0" y="0" width="140" height="140" rx="6"/>
      <text x="70" y="20" text-anchor="middle" class="title">RIGHT SOCK</text>
      <circle class="sensor-p" cx="70" cy="55" r="12"/>
      <text x="70" y="60" text-anchor="middle" class="text" fill="#2E3440" font-size="9">P</text>
      <text x="50" y="58" class="text" text-anchor="end">Heel</text>
      <circle class="sensor-p" cx="70" cy="95" r="12"/>
      <text x="70" y="100" text-anchor="middle" class="text" fill="#2E3440" font-size="9">P</text>
      <text x="50" y="98" class="text" text-anchor="end">Ball</text>
    </g>
    
    <!-- Right Knee -->
    <g transform="translate(190, 50)">
      <rect class="box" x="0" y="0" width="140" height="140" rx="6"/>
      <text x="70" y="20" text-anchor="middle" class="title">RIGHT KNEE</text>
      <circle class="sensor-s" cx="70" cy="75" r="12"/>
      <text x="70" y="80" text-anchor="middle" class="text" fill="#2E3440" font-size="9">S</text>
      <text x="50" y="78" class="text" text-anchor="end">Stretch</text>
    </g>
    
    <!-- Right ESP32 -->
    <g transform="translate(75, 210)">
      <rect class="esp32" x="0" y="0" width="200" height="100" rx="6"/>
      <text x="100" y="25" text-anchor="middle" class="title">ESP32S3-XIAO</text>
      <text x="100" y="45" text-anchor="middle" class="text">Right Leg Controller</text>
      <text x="100" y="65" text-anchor="middle" class="accent">A3:Heel  A4:Ball  A5:Knee</text>
      <text x="100" y="80" text-anchor="middle" class="text" font-size="9">(A0-A2 unused)</text>
      <text x="100" y="95" text-anchor="middle" class="text">Port: /dev/cu.usbmodem2102</text>
    </g>
    
    <!-- Output -->
    <g transform="translate(100, 330)">
      <rect class="wireless" x="0" y="0" width="150" height="35" rx="6" opacity="0.3"/>
      <text x="75" y="22" text-anchor="middle" class="text">WiFi: 192.168.4.2</text>
    </g>
  </g>
  
  <!-- Central Hub -->
  <g transform="translate(375, 200)">
    <circle class="box" cx="75" cy="75" r="60"/>
    <text x="75" y="70" text-anchor="middle" class="title">LAPTOP</text>
    <text x="75" y="90" text-anchor="middle" class="text">Data Collection</text>
  </g>
  
  <!-- Connection Lines -->
  <line class="line" x1="300" y1="350" x2="400" y2="275"/>
  <line class="line" x1="600" y1="350" x2="500" y2="275"/>
</svg>
